/* XPM */
static char *brick_texture_128[] = {
"128 128 16 1",
"A c #402519",
"B c #44352A",
"C c #664E3D",
"D c #744532",
"E c #904D35",
"F c #8C4830",
"G c #69321F",
"H c #7D3C26",
"I c #83412A",
"J c #87422A",
"K c #703925",
"L c #843D24",
"M c #6C412E",
"N c #7A3821",
"O c #8C4329",
"P c #803921",
"AAAABBBBAABBAAAAAAAAAAAAAABBABBAAABBAAAABBBAAABBBBBBBAAAABABAAAAAAAAAAAAABAAAAAAAAAABBBAABAABBBAAAAAAAAAAAAAAAAAAAAAAAAAAAAAAABA",
"CDEEEEEEEEEEEEEEEEEEEEEEEEEEFFFDEEEEFEEEEFCBGHIJIFIIIJJJJIHJJJFJIIIJIIHIFEFIIHKHLHKMCBMIFEEEFFEFFEFIFFFFHDIIDIIJIDHFFIFFEEEEEEMC",
"MEEFFFEEFFEFEEEEEEEEEEEEEFFFEEEFFEEEFEEFFEBBNIHLOEEOFOOFJLHHHJOFOJLJOOOJFOJIFEFOOJEKBBKIFFEEFEEFDFFDFFEEEEFDDDDFFFFEEEEEEEEEEEIB",
"GEFFEFFEJFFFEEEEEFFFFFEFEFFFFFFFFIFEFIFIIFAANLNPLLLLPLPLHNNLLNLPLPNNLPPJOLLLOOOLLLJKBBGKIFFDDDDDMFFIIDDIIIHIIDIIFEFEEFEEEEEEEEDB",
"BEEFEEEEFFFFFFEEFFFFEFFFFIFFJFEFFFFFDHHHIDBBGPPPPLLLLLLLPLPPLPPPPPNLLPPLLPLLLLPNLLJKBBGKMDDIDMMDDFFIFFIIIDKIIJIIEEEEIIEEFFFEEFDB",
"BEFFIFFEFEEEEFEEFJFFFFFFFIJJFJEEFFFFHIHHJDBBKLLPPLLLOLLLLLOLPLLPPPLLNPPPLPLLLNNPLPLKBBDFDDDDDDDDMMFFIDFFIIHHIJJFFFEEFJEEIFEFFEDB",
"BEEFIIIFFEEEEFEFIFJFFEEEFFJIJFJJJJJFKKHIIHBBHOPPPLLLLLLLLLLLPPPPPLLGNIPNPLLLLPPPNNLKCBMEEFFIIIIIDDIIIIFJDDHIHIFFFFFFIIFEEIEFEEFB",
"BFEEEIKIIFEFFFIKHFIJFFFIDJJIIIJFIIIJHKKKHKBBHLPLPPPLLPPPLLNPLLPPPPKHLLLPLLLJOPLPNNLKCBMFFFFIDFIDIFFFFEFFIHKHJOFFEEFFFJFFFFEFEEFB",
"BEFJFEEFIHFEFFIKIFEFFFDGGHJFIFFIJJIIHKKKJKBBKOLPLLPLLLPNLNGLLHNNKKKNPLLLLLLOOPNLNNLKCCDFFFIIFFIDFEEFFFEJOJHJOOFFFOJJJEJJFEEEEEDB",
"MEFJIFFFFFFEFFIIJFFFFEFFDKIIIJIIIIIIHHHIJKBBHFLPPLLPNNNPLHNOLNPKKHHHLLLLLPPLOPNPKPLKCBMEEEFFFFDDFEEFFFEIHLJFEFFFFOFFOFJJFFFFEEMC",
"MEFFFFJFFFFEFJIIJFFFFEEEJKIHIIHHHHHHHHHHJKBBHJJOLLJLPNPLLLNOOOJHHLJILLLOOLLLJNNPLLLKCCMEEEEFFIIFEEEEEFEFHIFFEFEEEEEEEEIHFFFFEEMC",
"BFFFFIFFFIEEEJJFFFFJFEEEFIIIIIIIHHHHKNHNKGBBKLHLLHPLLOOOLLLJLLLOLHHLJLLOLJLPNNNPPLLKCCMFFFFFIFFEEEEFFFFIHJFFFEEEEEEEFEJIEEFIFFIB",
"BDFFFFFEFIFEEFIDFEFFEEEFEFHIJIIHHHKKKKHHGGBBGIJIKKKKJOOOLOLJLLLLLNKHLLLLJHHHNNNHNLOHCCGFFFFFFIFFFFFEFFIDIFFEEEEEEEEFJFFFFJFFJFFM",
"BMDDDFEFFIFFEFFFFEEEEEEFIFIIIIDHMDKKKKHIHGBBAGKIHHIHOFFFOLHHOLOJLHHHOOOOFJJIIHHLIOJGCCBEEEEEFFFFFEEFFFFFIFFFEEEEEEFFEEFFIFEEEEIB",
"BAAAAABAAAAAAAGGAAAAAAGGAAAAGGGGGAAAAAAGABCCAAAAGGGAGGGGGGAAAAGGAAAAGGGGGAAAAAGGGGAACCBGMMGMDDDDDDMGGGGGGBAGGKKKGAAGGGGGGGABGGAB",
"CCCBBBBBBBBBBBAABBBBBBAABBBBBAABBBBBBAABBCCCCBBBBBBBBAAABBBBBBBAAAAAAAAAAAAAAAAAAAACCCCBAAAAAAAAAAAAAAAAAAAAAAAAAABBBAABBABBBBBC",
"CCCCCCCCCCCCCCCCCCCCCCCCCCCCCCCCCCCCCCCCCCCCCCCCCCCCCBCCCCCCCCCCCCCCCCCCCCCCCCCCCCCCCCCCCCCCCCCCCCCCCCCCCCCCBBBBCCCCCCCCCCCCCCCC",
"JIIFJIJJIIHIIHIIKDMCCCCMFFFDDDDDDDDDFDDDFFFFIMMKKIIJJFEEFJJFOJJMCCMIFFEEEEEEEEEEEEEEEEFFEJHIEEFFDEFFEDDDMDCCCMKHDDIFOIJFOOJHIOIH",
"FIIOOJOOLOOOJFOOFFOHCCMFEEEEEEEFEFFEFIFEFEEEEFFEFFFEEEFINLJIIIJKCCHIIHHHFFFFEFIFFFFFEEFFFFFFEEEEIFFFEEFIMIMCMLHILHOEJOEOOOOOOFFO",
"HHLLPLPPLLLLLOOLOIHKBCMFJIFEFFIDIFFIFIIIHIIFEFFFEJFJFIHPPNNNNGKGCMILLPPHJIIJIIHIFFJJOFFOFFFFEFDKKKHDFFFDDDGBGLNNNPLLLLOOOLLPNNNP",
"LLPNNPPLLLLLLLLHJLHIBCGFFFIFJIFJIFIIEFJIHHHIFFFFEFFIJILLPPHHNKNGCBJILLPPHHHHLLLJOJJJOOFJJJJFEFKKHIIIFFIIIDGBGOLNLLLLLLPLLLPPPPNP",
"LLNNLLLLLLLPPHHKJOOHMCGEFIIFFFFIIDFFFFIHHHIJFFFEFFFHIIHHPPPHNHHGCBILLLNNNHKNLLLOOEEFOFFJOOJJJJJJHHIIIIIIIIBBGJLLPLLLLPPNPNNPNNNP",
"NKNLLLHIHILLLOINHJJHCCGEFFEEFFFFEEFFFFJIIIJOFFFFFOIHHKHLHHHLPNKGCMHLPLNKGKIOOOOLIFEFFFFEOOJFFJJIHHIFJJFJIIGBGLPPPNNPPNNNNNNNGNPP",
"GGPLPHHJOOLLJJHKNLLHCCMFFFEEFFFIFFFFFFFFFIIIJFFOIJJIIHKHHLLPNGNGCBJLPPLNGHLLOOOLOOFFOOOFOOIHHHNNHHJFFFEEFFGBGPPNPNNNNNPNGNNNNPPP",
"NNPPHHOLLLLPNLNHLLLHCCMFFJIIFFFIIDIIFFFEFIIIIJJIJIJJLKGKHLHNNKIKBBIJLLLLLLHLLOLLLOFFOOOOOOLHHHHKHNJFEFFEEFBCGNNGPLLLNNNPNPLPNPNN",
"PNGLHJOOLLLLLLLLOLIIBCMFIIIFFFFIFDIIFFFFFFIIIIIIKKIIKKKKNHHHNNIGCBJJLOOLLHNHLLOLLOOOOOOOOOJHHHHHHKIFEFFFFIGCGPNNLLOLNNPLPLPNNPNN",
"PNNPPOOOLPPLLPLJOJHIMCMFIIJFFFFIFFFFFFFFFFIIIIIIKKGGGKHHNHHLPLHGCBIILOOOJLHHLOOOOOJOOOOOOOIHNNHHHHJOOJJIFIMCGNPPNLLNPPPPPLPNNNNN",
"PNNNNLJHHHKNPHHJHKHIBCGFIJFFEEFEEEFFFIIJIFFFJFDKKGGHKHHHHLHHNNHGCBHILLLOOJLLLJLLOOOOOOOOOLKKKKHIHKIJIOJIIIMCGNNPPLLPNPPPNNNGPPPP",
"LLPPNLLNNPPNNPLHLHKHBBBFFFIFEEFEEEEFIIHIIIFIFFDKGGIHKKKHIIHKKHOGCCIFILHLJOOOJOOOOOFOOOOOLIHGHHNHHIFFOFJIIFMCGPNNGNNPPNPPNKNNNNNN",
"LLIKGGHLPKGPPNPPJJFGABBMEEFDFFEEEEEFIIHIFFIFDMFDKKKHGGGHHIHKHHHBCCKFFOHHIJJJFOOJOFFOOJJJJJJHIJIIJFFFFFIIFIBBBKHNKNHNPPNPPNHLLPLL",
"AAAAAAAGAAAAGGGGGGAABCBABKKGGGBBBABGGGGGKKGGAAAAAAAAAAAAAAGGGAABCCAGKGGAGAAAAGGGGGAAAAAAAAAAAAAAAAAAAAAAGGACBAGGGAAGGGGGGAAAAAAA",
"BBBBBBBAAABAAAAAAAABCCCCBBBBAAABBBAAAAAAAABBBBBBBBBBBBBBAAAABBBCCCCBBBBBBBBBBBBBAAABBBBBBBBBBAAAABBBBCBBBBCCCBBAABAAAAABBBBBBBBB",
"CCCCCCCCCCCCCCCCCCCCCCCCCCCCCCCCCCCCCCCCCCCCCCCCCCCCCCCCCCCCCCCCCCCCCCCCCCCCCCCCCCCCCCCCCCCCCCCCCCCCCCCCCCCCCCCMBCCCCCCCCCCCCCCC",
"CMHIIIDMIDDIIIFJFFFEEOOFFOFEFEEEFFFEEEEEFMCCMIJFFJIJFOFJJFFJIFFJOOOOOFOEEEFFFOOOOIHMCCCMDEEEEDDMDEEEEEFFFEEEEEFFFEEEEEEFFFFOLHKC",
"BHFOFFJFEHDKIFFIIOIJFJHIOOOJJFFIEEFEEEEEEHCMIJJFOJJIHHKHIIIIHHHHHLLJJOJLJIHIJIHIIHHNBCMFEEEEEFDFEEEEEEEEEEEEEFFFFFEEFFIIOOOLLHNM",
"BHJOOJLOEIHHJJHHHJLLPNLLLOJJHHLHIJIFJIFFFICMKHIJJPNNNNKLLGGKKNPNPPLLLLLPLJLLLLLLPNHNBBMEEFFFFFFIFFFFEEEFFFIIIIIFIJFFFOIILHNNPHNB",
"BKHLLPLLLLHLLLLNHHLOONPLHLHLJLPPHIHIIHIHIKBBHHHLLNPPPPNPNKGGNHLLPLLLLLLLJOOOHHNNKKNNBBMEFFIIIIFFIIIFFFFFIFFIDFIFJIIIIIIHLPNNPHNB",
"BKLPNLHLJLHHHLLPPHHNLLNHLHGNLHHNHLHHHKKHHGBBHHLLLLLPPPNNNNNGNLLLLPLOOOOLOOOLLHKPNNNGBBMEFFIDDIFFFFJFFFFFIKIFJIIFFFJJHKKNPPPNNNGB",
"BHJLLLHHHHIILLOJLPNNNLPHGGGGLNNNHHNHHHHHKMCBILLPLLLLHNGGNPPNNLLPPPLOOOOJOOOLHNNPPLNGBBGFIFIIFFFFIFFFFFEFIDMIIIFFFFFFJHKNNNPPLNGB",
"BHFIILLHKHHHLLOJLPKHNPNGAGNPNHLLHHHLOOIIFMCBIIHLLLNGPPGGNLLPLJLPPPPLOOOFOOOJHNHHNGGGBBBDDIFIFFFFIEEIFFFFFIDDFIIJIIFFHHHNGNKNPNGB",
"BHIIOJIHKHIIHNJOOOJOOLPNKGGNPLLLHKNLIOFOEMCBIHLJLLHGLLGNPPPPPLPPNNLOOOOFFOOOINHHNNGABCGEFFEFFFFIJEEFFEEFFFFDDIIIIIFIKHNKNNGNNNKB",
"BHJJFJHKKKIOJKHJOOOOLLPGGKNKPLLLHILOLJOJFMCMJLLLJOOLLLNNLLLLLLPLPPLOOOOOOOJLLHHNNNNGCCMEEEFFEFIIEEEEFEEEEFEFIJIJHHIHKNHPNGGNNGGB",
"BKJHHJJKKKKOOLNNLPPPPLHGNNNLLLLLOOOOJJOIFMCMIJLLJOLLLLLLOOOOOLLLLLLOOOOOOOOLJHHLLLLKCCMEEEFFFDIGKDDEEEFFEEEIIKHIHIIDHHHNNGGNNNGB",
"CKHHHJJIHKGIJJHLLNNNPPKGGKGNHHHJJIIIJJJJFMBGHHHLLLLLLLLLOOOOLLLLLLOOOOOOOOLOLLLJLLHGCCMEFFFEFDDIIDMDFEFFEEFFHGKHIJIDKKKNKNNGGKKB",
"BMFIIIHHKHHOOOLOLLKKGKKKGGNNHKKHHHIIIJJJFGCGIHHJLLLLJOLLLJJJOLLLLOJOLOOOOOLLOLHHLINGCCGDIIFEFEEEFFDIEEEEFFEFMKHIIJDMGHINNNNKKHHC",
"BBDIIIHHIIJOJIJLHHGKKKKKGGKKGKKHKHIMMIIIDBCBIIIHLHHJOJIIJJJJJLIIHOOOOOOOOOOOOOHHLHGACCAAKDFEEFEEFIFFFMMFFFDMMMDIIDDKKKIIKHHHHHKB",
"BAAAAAAAAAAAAAAAAAAAAAAAAAAAAAAAAAGGGGAAABCBAAAAAAAGGGGGGAAGAAAGGGGGGGGGGAGGGGGGAAABCCAAAABGBBBBAABAAAAAAAAAAAAAGBAAAAAAAAAAAAAB",
"CCBBBBABBBBBBABBBBBBBBBBBBBBBBBBBBBBBABBBCCCCBBBBBBBBBBBBBBCBBBAAAAAAAABBBBBBBAABBCCCCCCCCBBBBBBBBBBCCCBBBBBBBBAAABBBBBBBAAABBCC",
"CCCCCCCCCCCCCCCCCCCCCCCCCCCCCCCCCCCCCCCCCCCCCCCCCCCCCCCCCCCCCCCCCCCCCCCCCCCCCCCCCCCCCCCCCCCCCCCCCCCCCCCCCCCCBCCCCMBCCCCCCCCCCCCC",
"EEEFIIFJIIJOOOOJJIHMCCCDFEDDEDEEEEEEEEEEEEEEEEEEEEEEEEEEEEEEEEFCCCMIOEEEFEEFFFFFFEEEEEEFFFJFFJJIIJFOOOOJLKCCBKHIIIIIFJIJFFFEEEEE",
"EFJJHHJOOLHHIHHJOJOICCMFEEFEEEEEEEEFEEEEEEEEEEEEFEEFFEEEEEEEEEICCCNOJJOIIIIHJOFEFFEEEEEFJOOOOOOOOOOJJLHJONBCGKKKKKKIOOOLHJFEFFEE",
"FFJHLLLLLLNGGGNHLHIFBCMDDFEEEEFFEEEFFFEEEEEFEFFFFEEEEEFEFFIDFEDBCMNLLLLLOLNHPLJOOOIHIOOIHOOLOLLLLPKKNNPLPKBBGINKKGGNHLLJLLOJJHII",
"FFIHLLLLLPPNGKHLHHHIBCGFFFFEEFIFEEEEFFFEEEEEEFFFFEEFEEFFFFFIIFFMCMIPLLHLLOOLHJJOOOJOOOFILOOLLLLLLNHLPNNNNKBBGJLNNKKGNHIOJLLLLLIJ",
"JIIHLLLOPPPONGNHLJIHMCMEEFFEEFFFEEEEEFJIFEEEFFIJFEFIDFIFFEFEFFFBCGHNGGNHIOFILJOOFOJJOOOOLOOLNLLPPNLOLPNNLGBBGOLPPNPPPPPLLLNNJJJO",
"OIIJOPPLPLLOPNNHJOJHCCMEEFFEEEIFEFEEEEFFEEEEEFFFJDDDFEFIFFEFFFFBCGNNNNPLLIIIHHJIOOLLLHOOOOOLLNNNGNNPOPNLLGBBGOOLLNNNPPPPJJHNIJJO",
"JJPLLLPPNPLLLLLLOLIIBBGFFFEEFFIFFFEEFEEFEEFEEEFIIFIDIFFFFEEFIEFBBGPLLNNLLIHKKKHHLJJJLLOLLOOOOPNNKNPLPPGNPABCGOLLPNNNLLLLIJLIJJLL",
"LHNLLPLLNLOJIOLJJJJIBBMFIFFEEFFFIFEEFFEMGMFFEEFIFIFFJFFFFFJFFFEBBGHLLLHHJJJJHGNHLJJLOJLLNLOOLLPNPPPPNPGPPGBBKOPPPLLLLJJJJLHLLLJJ",
"NKNNNLOLLLJJJJLLJJJHBBGFEFEFEEEFIFEEEEFFMDEFFFFFFEEEFIIJFIJFFFFBBGHNLLLLOOOJHNHLIHLOOOLLNLLLLLNNLLPNNNPLLKBBKOLLPIOOOJOOOHHHLJJJ",
"LHKGKPLLJJLJOIHHLLLIBCMEEFIFFEEEFJEEEEEEFEEEEFFFFEFFFIIFFFFEFFDBBGINLOOOOOOJJHHLHHJJOOLLLLPPPLPPPLLPPPLLLKBBKLLLHJOOOOOOOILLLHIJ",
"OOLKHOOOOOJOJHNNNHHHBCMFFFIFEEEFFFFEEEEFFFFFFFFFFIFFJFJJFIIFFFDBBGJNNLOOOLJJIHHIJIHHLIJOJLLLPLPPLLPNNPLKNKBBKHLHHIFOOOOOJJLLJIII",
"JIOOJJOOOOOJJHHHHIIHBCGFEEFFEEEEFFEEEEFEEEFIFIIIIIFFFFJFIIFEEEDBCGHPLLOOOIIIIHKHHLHHIHHHJHLLLLPPLHNNGGNGNKBBKIHHHHOOOOOJOJJIJOJI",
"JIFOOOOOOFFJJIIIIIJKBCBFEEEDDIDDIFEEFFFEEEFFIIIFIFEEFFFFFJFFIDBBCAGKHJOJJJJIIHHHHIHIIHHKGHILLLLLHKHLHHNHKGCCAKKHIKIFFFOJIFIHHIII",
"AAAGGGAAAAAAAAAAAAAACCBAGGGAAAAAAAAABBGBAAAAABBGGBBAAAAAABAAAAACCBAAAAAAAAAAAAAAAAAAAAAAAAAAGGAAAAAAAAAAAACCBAAAAAAAAAAAAAAAAAAA",
"BBBBBBBBBBBBBBBBBBBCCCCBBBBCCCBBBBCBBBBBBBBBBBBAABBBBBBBBBBBBBCCCCBCCCBBBBBBBBAABBBBBBBBBBBABBBBBBBBBBBBBBCCCBBBBCBBBBBBBCCBBBBB",
"CCBMMCCCCCCCCCCCCCCCCCCCCCCCCCCCCDDDDDCCCCCCCCMMMMCCCCCCCCCCCCCDDDMDDDDMDDMMMMBMMDMCCCCCMDDMCCCCCCCCMMDMMMDMDDMMMDDMMMCCCCCCCCCC",
"BDFEEEEEEEEOEOFFOOEEEEEEEFFEFFEEEEEEEEEEEMCCKLOOOOOOOOOOOOOOFOOOOOOLLHIIOOOEOFFOEOOGCCMKHIOOFOOOOOOOOOOOJIHHJJIIOOIOOFOOFFOOJIGB",
"CIFIFOJFJJOJIIHHJJJJHJFOEEEEFFOKIIIJFJJEEHBCNOLNLOOOOLLLLHNIOFOHNNNNNNKHPPLIHHIJOOJGCCKNHHLHOOOOOOIIIHLNNNGGKNKKHKKHHHKHHJLHKILB",
"BIJHIJJLLLLLJJHNPLLOOJIIIOOOJOPGNLOJLLJOFHBBNJPPPLPLLNNPPNNPLLNNNNNNNNNNNNNKKNNPPNHGCBGJPPNNPLLOOOIHLHLLPPNKGKNNNKKNNGGKNNNNHHHB",
"BIFJJJLLJLLLOOJPLLLOOOOEEFOOOOPNKLOOOOOJJKBBKLNLPNLLLPNPPPPPPNNPNNNGGNNGNHNGKNPPNNNGBBGLNNKNLLLLOEEJLJOLPPHHHKKGGKKGGGGNNNPHHHHB",
"BHJIOOLHOOJJFOOLLLLOOOFFFFOOJJLHHLJJJOJJHKBBNLLLPGPLPLLPLPNLPLLNNNNNGGNNNNNNNNNPNNNKBCGJPNPHLPLLOFEFOOOLLLHNHNNNGGKKGGGKNNLIILHB",
"BIFOOJPPLLJFEFOLLJOOOFJJJJOOOOLHHHLLILLNLKBBNLLPPNPPPPPLLPPPLLLPNNGGGGNPNNGGNPPPPPOKBCGILLLLLLLOOOJJILJOILHGKNHHKGGKNNNPNKHHHLHB",
"BDIOOLLPLFJFFOOLLOOFEFJIHHLJLPPGKHLHLNGNJGCCNPNNPNNPPLLPPNNPLHPNNNGNNNNNNPNNPPPPPLOGCCGHPLLOOLLLIJILLLLIHLHGHHHNKGGKNPLPHLLHLOIB",
"BHFJJLLLLOFOFOOJLJOFFFFIOOLHLLLNHJLNNNKNHGCBNLPPNNNNPLLPNNNNNNNNLPNNNKKNNNPPPPNNNNLGCCGHNHNLLLLKIOJLKLJIJJJKKNNHKKNNPLPLIJJLHJIB",
"BIJOJJIHHOOOOJJJILIOFEFHOLHOLNLLHLHNPLLJJKCBHLPPPPPLLLLHHLNNNPPPPNKGNNGPPPLPPPPPPPJGBCGHKKGKJHHOIHOJKHJOFOOLKNNHNNPPPNHIIJJLHLIB",
"BHIJOJJIJOJJOILOJJFFFFFHIJJLPLLJHNHPLJJJOKCMNHPLLLLPLHHHHLLHNPPNNKKGNHKNPPPPPPNNNNLGCBGHNKKHOOJOJOOOIJOOOJJHNNKKNNPPPPLJJOOJLJLB",
"BHIJJIIHHIIJJJJJJJFFEJOJJIOLLLJJHNHJJOIKIKCMKNHPNPPNNHLHOOOOLPPHNNKGKNGNNPLLLNNNPLHGBBGOHKHJLJJOOIIIOOOOOJJLNKNNNPPPPLOJOOJOJLKB",
"BKEJJJJHHHHJHIIFFIFFJFFOOJOJLLOOIHJIJIKKJKCMHHHNNPLHHIJOOFFFIKKHIHNKKHNNPLLLPPPPLOOGCCGJIJHHLLOJOJIIOOOOOOOOLNNPPPLPNHJJOOOOOJHB",
"BAHJFIHKHIHKHIFEFEFHFEEEFEFINHIIIIFHHHIIFKCBGKGKKKJFFFFIHFHHIKKKKHHNNGGGHLLLLLLLLHHGCCAGKHKHHJOJJJIIJFFJJHHHIHLLLLLLLOOIIJJOJIHB",
"CAAAAAAAAAAAAAAAAAAAAGGGAAAAAAAAAAAGAAAAAACBAAAAAAAGGGAAAAAAAAAAAAAAAAAAAAAAAAAAAAABCCBAAAAAAAAAAAAAAAAAAAAAAAAAAAAAAAAAAAAAAAAB",
"CCCBBBBBBBBBBBBBBAAAAAAAAABBBBBBBAAABBBBBCCCCBBBBBBAABBBBBBBBBBCCCCBBBBCBBBBBBBBCCCCCCCBCCCCBBBBCCBBBBBBBCBBBBBBBBBBBBBBBBBBBBBC",
"CCCCCCMMMDMDDDMCCCBBBCCCCCCCCCCCCCCCCCCCCCCCCCCCCCCCCCCCCCCCCCCCCCCCMMMDDMMMMMCCDEDDCCCDCCCCCCCCCCCCCCCCCCCCBCCCCCCCCCCCCCCCCCCC",
"EFFOJOJIOOEFOOOOOOFMCCCMFEEEEEEEEEEFEEEEEEEEEEEEEFEEEEFEEEEEEEMCCCHJOOOOFJJHIIFFEEEEEEEEEEEFJFHHDIFFFFFIDMCCMHJJOOOFFOIHHJOOOOFE",
"JJJHNHHHNPPPPPHLLHILBCMFEEEFFEFFFFEFJIIFFEFEEEEEEEEEEEEEEEEEEEICCGHIJLLLPNHHHIFOIHIIFFFFFFEEEJKKHJFFJJIFEKCCGJOLJOJJJJOJJIOOJJOF",
"PNPNNPNHLNNNPPPNPPKHBCBDIEIFFEFFIIIIIHIHHJHIFFFJFFFFEFFFEEFFFEFBCGPNNPNNNNNGNPLLLLLJLIHLLHJOOFHGKHHLHHNNHKBBGNNNLPNPLLNGNNPPPLLL",
"LLKGNNNPLPPNPPPPNNHIMCMEEEEEEFFFFFJHIIIIIHIIIIJJOOFFFFFFFFFJFFFBBGLNNNNNPPNNNPLLLJLLLHHHHLOOFOIGGHLHHHNHIKBBGKNPNLLLPLNGNPPPLLHP",
"OLNGNNGKPPNNNNPLLHHHBCMEEFEEFFIFFFIIIJJFFJIFIKIFFFJJFJIJJJJJFIDBBGNGNNNNPPPNNNNPLLLLIHHHJOOFFFFIKKIJJLLJOKBBGKNNNPLLLLLNNNPPPLPH",
"NNNGGNNNPNNNGPLLIJJKBBMFEEFFFIIFFDHHHIJIIJFJJIIFFJJIHKHIIJJOJIDCCGNNPLLLPPNNHLPPLLLJJLIKJJOOOOOIKHLLJJJOOHBCGNPPPLLLLPLPGGPNNLPL",
"PNGGGKNHPNNPNLPLJOOICCMEEFIMIIKKKMIHKIKDHJFFJFFHJIJFIKHHIFJFJIMBBGNNPLLLLLLHHLLLLHIOOIIHHJFOJJIIHKNJJLOOOHCCGHPNNPLPPPLLPGNNLOLO",
"PLNGGGHIHNGHLNGNLLJHCCGEEFIFEFKIDMHIKDDJFFFFFEFJJIHIFFIIFFJFJIMBBGPLPLPLPLOLHIJJIIJFFJIHHLJJJOFJHNNOJPLHHKBCGLNGGNPNNGLLPPNNLLLL",
"PPNNGGHIHNKNHNNNHNIKBCGIFFFFFFHHIHHIIIFFEEFFEEEEFJIIFFFIJJJJFFDBBGNPLPNGNPLLIOJJOFFFFIIOOOOFFJJJOOOOOLNNNGCCGPNGGNNNNGNPPPPNPPNP",
"LPNGNNHIIIHNKNPHNNHKCCGFFFFFFIKHHHHJFFFFFIIFEEEEFFFJEEJIJJJOOFIBBGPPPPNNPNNLJILIJJJJFJJFFJOFFFOOFILLOJHNLGBCGNNKGGNNPPNNNPLPPPPL",
"LLNGNNNLIIHNKGHHKIIKBCBDFEIJFIHHIIIIIFFIHHIFFEEFFJIIFJIIJIJFIJFBBGPPPNGGPNPLLLJJJJOFFOFOOOFFJFOOOINNOOLNNGBBGNNNGNNPNPPNGNNNNNPN",
"LKGNNNNNIIHNHHLLHHKKBCBIFFIFFFIDKIIFIHIIKHKIFFFFFJIJJIHHIIJFIFFBBGLLNNNNPNNPLJOOOJFFFFOJOOFFFJFJIIHHHLPNNGBBAGHPNGGNNNNNNPPGNLNN",
"OJKGNLHHHHKGGGNNHHKABCBGDIIIIFIIDMKIIEFIHIDIFIJFFJFJJIHKIFFFEFGBCBGNKKGGKNNNKHKHIIIKHIHJJIIIHHHKHKHHHHLNKABCAGKHLKGKNNNNHLHHHHHN",
"AAAAAAAAAAAAAAAAAAABCCCAAGAAGBAAAAAAAAAAAGGGGAGGKGGGAAAAAAAGGAACCBAAAAAAAAAAAAAAAAAAAAAAAAAAAAAAAAAAAAAAAACCBAAAAAAAAAAAAAAAAAAA",
"BBBBBBBBBBBBBBBBBBBCCCCCBBBBAABBBBBBBBBBAAAABAAAAAABBBBBBBBBBBBCCCCBBBCCBBBCCBBBBBBBBBBBBBBCBBCCBBBBBBBBBCCCCCBBBBBBBBBBBBBBBBBB",
"CCCCCCCCCCCMMCMMMMCCCCCCCCCCMCCCCCBCCCCCCCBBBBBCCBBBCCCCCCCCCCCCCCCCCCCCCCCCCCCCCCCCCCCBMDDDCCCCCCMMMMMMMMMMCMMMMMMMCCCCCCCCCBCC",
"CMKHHIJJOJLLOIOFOJOOOJIOEEEEFFEEFJIFIJJIMBCCMHIIHKHIOJOOOJOFIIIIIJOOIIFFEEFIIIFEEEDCCCMHFEEEEFEEEFOOHJHGGGKHIJLLLIIJOJHILNKIHNGC",
"CGLIHHHHLJIHIHHOIIIIIHKIFJFJHOFFOJIIKJJFOGCCHFHKHHHIIIJJIHIJJIHHHHHHIJFFEEEEEFEEEEEKCCMJFFFFFIEEFEFFHHGGKKKIJHHLLLHLLHHIILLJHINB",
"BGHOLNNNNPNHNKGHGHLLLNNNNHIIIIIIHHNNNHHJJGCBKJKGHHHHNKNHLLHHHNKNGGKKHJJIIIIFFFFEEFEDCCGIIFFFFJIIJIILLNGGKHHNGNNNLOLLPKNNNPPLHHHB",
"BKLNNNNNNNNLHGNNNHPLLLLPKNHLOJIHHLLLJLNHHGBBKHHNHPLLLNKPPLLLPGGKKKKKHOOOJIIFFFFFFFEDBBGIIFFFIIHIJJHNNKNHNNPNNNNPLLPNHNNHNPPPLHHB",
"BKNGGGGNNNNLHNLNGNPNHHHLLPHOOJJJOJLHLHHNKGBBKHNLHPHHLNNHHLJLPNKKHKHKHOOIJJIFEEFFFIFDBBGIIFFFJIHHIILNNNLLPLLNNPNLLLPLJJHKKPPPLLHB",
"BGLPNGNNNPLPLNHNNNPNHNLHHPLLHHHIOLHLHNKNHGBBNNNHLLLLHHHLJJLLPNNHHHIIHIJIFJFFFEFFFFEDBBGIHIIIJJJJILLHLPLNGNGNNNPLLLLLLJIGGNLPLLHB",
"CKLLPGNPPLLHHKKNNPHNNKKNLPNLHHKKHHJJILKGHGBBHNNHLJILLJHLLLLLJLJJJIIIKIOJJJEFEEFIFFFDBBGKKHIHJJIJJJLLLLOPKGGNNPPLLJOJLLJKKNHHLJHB",
"CKHLPPNPPPPPHNGNNNGNGGGNILIIHHIIIHHIIIHKHGCBINKHLLLJOOIIOOLLLLLLOILOOOOOOJFJIFFFFFEDBBKIKHJJJIIIOOLPPLLLNNNGNPLLLJJJLJJIIJJLJJIB",
"BKLPLPLPPNNNNGGNNNNNNHHLLLHIIKIFJIHHKHNKKGBBHHHNNLLJOOOOOHHLPNKHJJLJOOOOJJJFFFFFFFFFBBGFJIIIIIIJIJIHPLLNGGNNHHOJLLJJHHJJIIOFFIIB",
"BGHPPPPNNNNNNGGNNNNNNPHHLJIJIIIIIIHKKHHHKBCGIFFHHHLLJJJLNLLJOHNHHHJLLJOOJJJEEEJIJIFFBBGFJIHIIHHIIIIKNPNGGPPLHPLLLILLIHIIHIJFJJIB",
"BKHLPNNGGGNNGGGNNPNNNNNNHIIJFEFIIJIHIJOIKGCMJFFFHHHPPNHLNPJJOOHHHHLLLHHIJFFFEEEFFIEFBBGIIHHHIHKIHIINGKNGNLHLLLLLLIJLJHHHHJJIHIJB",
"BGHNNNGGGGGGGGGGNNKNNNNNHJFJFIIIFFFIJJIIIGCMHHJFIHNNPLPPNPPLLJFIHLLHHKKKIIJFFFEEFFFDBCBIIIIIHIHIIOOHGKPNNLLLJLLJIIIJIINKHIIHIOJB",
"BGKKNGGGGGGGGGKKNKGGGNNKKKKKGKDDIDDIIIIIHBCBKKHIIHHILJLLPNHHHJFFJLHNHJKGDHIFDFIFEFDGCCAKIILHHJIHIHKGGHNKKKHHHHKGGHHHIKGKHIFOOJGB",
"BAAAAAAAAAAAAAAAAAAAAAAAAAAAAAAAAAAAAAAAABCBAAAAAAAAAAAAAAAAAAAAAAAAAAAAAAAAAAAAAAAABCBAAAAAAAAAAAAAAAAAAAAAAAAAAAAAAAAAAAAAAAAC",
"CCBBABBBBBBBBBBBBBBCBBBBBBBBCBBCCCCBBBAABCCCCBBBBBBBBBBBBBBBBBBBAAABABBBBBBBBBBBBBBBCCCBBCBBBBBBBBBBBBBBBBBBBBCCCBBBBBBBBBBAABCC",
"CCMMMMMCMMMMMMBMMMBCCCCCCCCCCCCCCCCCCCMMMCDDDCCMDDDDDCCMMCCCCCCCCBCMBBCCCCCCMCCCMBMMCCCCMCCCCCCCCMMMMMMMMCCCCCMDMMMMMMCCMMMMMMDC",
"OOOOFOJOOOJLIHHNKKNKCCCDEEEEEEEEEEEEEEEEFIEEEEEEEJFEEEEEEEEEEEDCCBHOHKHHIJHHIJJOOOFOOOLOEOOOJOOJKGKHOOOLHKCCGNLIOJHHOOOOOOHIJOOO",
"HLJHLIPPPLLIIIHIHHHKCCMFEEEEEFFEEEEEEFEEFDJEEEEEEIIFFFFFFEEEEEEBCGJFDMMDHIHKIHLLJFOOLLLOOOOLIILHKGHNNNNNNGCCGKHHHNNNNPLLHHHHHHHK",
"LLLPNNNNPPNLNGGKKGKGBCGFFFEEJIIFFFFFFFFEIIFEEEEEEEEFFFEEFFFFEEEBCGKNKGGGKKKNNPPNNLLLPNPLPLLPNNNNNKGGNNGGNGCCGKGKNNNNNNNNNGNNKNNN",
"OPPPPLPNNNGNGGGNNGGGBCMEEFFFJFFEFFFFFFFDGHJFEEFFEEEFEEEFFFFFEEEBCGHNKGGGGGKNNNNNPNPPPPLLLLLLNNLLNGNNPPNGNGBCGHKGGNNNNNNNGGKKNNNL",
"LLLLOLPNNGGGGGNPNGGGBCGEDFFIIIEFFFFIFIIKKGKFEFFJIFJJFFEFFEEFFFDBCGLNGGNNGNNNNPPPNNNNPPLLLLLHPPPPPKNPLLPNPGBBGKGGGNNLHNNKNNHKNPPL",
"LLLLLPNPHNNNNPPPNGGABCGFFFFIIIFFIFFIIIKHIJHIFFFIIIIJJJFIIIFJDFFBCGKGGGGGGGGNNPLLNNNNNPLOOLLPNPPNNGPNNPPNNGBBAGGGNNNPNKGGNHNGNNNP",
"LPLLPNNPLHHNNNPLPGGABCGEFFFJJIJJJEFIHFIIJFFHHJFIHKHHJJIIIHJJJFFBBAGGGGKGNGGKNNNPPKLPLLPLOJLLLPNNKGNNPPNNGGCBAGGGNNNNHHHHHHKNNNLL",
"PPLLPNPLNHLHKNNNNNKGBCGEFFFIIHIIFFFFIFJHHIIFJIIHKHHIJJJKHIIIJFDBBGHGKNHLPNGGNNGNLLOLLLLLLLHLLLLKKGNNLPNNGGCBGKGGNNPNNIJIIHPNNNPL",
"LOOLLNNHLHIIHHNNNGGGCCMFFFFFIIJFFEFJIIIIIIIJFIIHKIHHIIJHKHHIIIDBBGIHNPNLPNGNNHNNPLLLLLLLLLHILLLKGGNNPNNNNGBBGHHKGNNNHHIHIHNNNPPL",
"OOOOLLHNLIHHILLPPNGGCCMIIIFIIIIJIFFJHIIIIJIIHHIIHHHHIJFJIHIIIIFBBGJHNNGGNNGNNNNPNNPPLOLOOJHHLLLPKPNNNPNNKGBBGNHHKNNNHHHKIHNNLPLL",
"OOJOJHHNHJIIIHHPHPGACCGIIIIJIJFFFIFFFHHHJJJFIIFIKHKHIIIIHHHIFFFBBGINNNNGGNNNNLLPNNNLLLLLLHNHHPLLNNKNPPLPNGCBGJHHLKGNHHHNNNNNPLLP",
"LLHHKHKNHHHHHNPNNPHGBCGDDFJJIFFFFFJFIIJFJIFFJFFHHHHHIIHKHIKKIEFBBGHNKNNGGGGGNLLPNPPPLLPPHHLHNHNNLHNNNNLLLGBBKJOLLKKNHHHKKNNKGGPN",
"HIHKKKGKKKKHHNNNNHHGBCBMDIFFDDDFEIIEIGKFEFFEFJIKKHIIJFIGGIIDIFMBCANNKKKKKKKKKNNNKGKHLHNNKGGGKGGGGKHHHHJLHABBGHLINKHKKKKHKGGGAAGG",
"AAAAAAAAAAAAAAAAAAAACCBAAAAABAAAAAABAAAAAAAAAAAAAAAAAAAAAAAABAACCBAAAAAAAAAAAAAAAAAAAAAAAAAAAAAAAAAAAAAAABCCAAAAAAAAAAAAAAAAAAAA",
"BBBBBBBBBBBBBBBBBBBBCCCBBBBBBBBBBBBBBBBAAAABBBBBBBBBBBBBBBBAAABCCCBBBBBBBBBCBBBBBAAAABBBBBBBBBCCBBBBBBBBBCCCCBBBBBBBAABBBBBBBBBB",
};