/* XPM */
static char * north_xpm[] = {
"64 64 212 2",
"  	c #000000",
". 	c #010101",
"+ 	c #040404",
"@ 	c #080808",
"# 	c #0D0D0D",
"$ 	c #111111",
"% 	c #161616",
"& 	c #1B1B1B",
"* 	c #1F1F1F",
"= 	c #232323",
"- 	c #262626",
"; 	c #2B2B2B",
"> 	c #2C2C2C",
", 	c #383838",
"' 	c #3F3F3F",
") 	c #494949",
"! 	c #555555",
"~ 	c #5C5C5C",
"{ 	c #6F6F6F",
"] 	c #797979",
"^ 	c #767676",
"/ 	c #737373",
"( 	c #727272",
"_ 	c #616161",
": 	c #7F7F7F",
"< 	c #636363",
"[ 	c #5D5D5D",
"} 	c #4E4E4E",
"| 	c #404040",
"1 	c #3B3B3B",
"2 	c #373737",
"3 	c #313131",
"4 	c #272727",
"5 	c #1E1E1E",
"6 	c #171717",
"7 	c #070707",
"8 	c #030303",
"9 	c #131313",
"0 	c #1A1A1A",
"a 	c #292929",
"b 	c #2E2E2E",
"c 	c #323232",
"d 	c #3A3A3A",
"e 	c #464646",
"f 	c #525252",
"g 	c #606060",
"h 	c #808080",
"i 	c #858585",
"j 	c #878787",
"k 	c #8A8A8A",
"l 	c #868686",
"m 	c #8D8D8D",
"n 	c #848484",
"o 	c #7B7B7B",
"p 	c #696969",
"q 	c #5F5F5F",
"r 	c #565656",
"s 	c #4A4A4A",
"t 	c #434343",
"u 	c #3D3D3D",
"v 	c #2A2A2A",
"w 	c #242424",
"x 	c #141414",
"y 	c #0C0C0C",
"z 	c #060606",
"A 	c #090909",
"B 	c #151515",
"C 	c #222222",
"D 	c #2D2D2D",
"E 	c #343434",
"F 	c #414141",
"G 	c #7E7E7E",
"H 	c #8C8C8C",
"I 	c #929292",
"J 	c #949494",
"K 	c #8F8F8F",
"L 	c #989898",
"M 	c #8B8B8B",
"N 	c #595959",
"O 	c #4C4C4C",
"P 	c #474747",
"Q 	c #353535",
"R 	c #303030",
"S 	c #121212",
"T 	c #0A0A0A",
"U 	c #212121",
"V 	c #505050",
"W 	c #646464",
"X 	c #818181",
"Y 	c #969696",
"Z 	c #999999",
"` 	c #A2A2A2",
" .	c #919191",
"..	c #828282",
"+.	c #6A6A6A",
"@.	c #424242",
"#.	c #2F2F2F",
"$.	c #363636",
"%.	c #454545",
"&.	c #4D4D4D",
"*.	c #5B5B5B",
"=.	c #939393",
"-.	c #9C9C9C",
";.	c #A7A7A7",
">.	c #B1B1B1",
",.	c #BABABA",
"'.	c #ADADAD",
").	c #AAAAAA",
"!.	c #A9A9A9",
"~.	c #9E9E9E",
"{.	c #979797",
"].	c #707070",
"^.	c #575757",
"/.	c #191919",
"(.	c #0F0F0F",
"_.	c #444444",
":.	c #5E5E5E",
"<.	c #9F9F9F",
"[.	c #BBBBBB",
"}.	c #C0C0C0",
"|.	c #B4B4B4",
"1.	c #A5A5A5",
"2.	c #6E6E6E",
"3.	c #333333",
"4.	c #484848",
"5.	c #686868",
"6.	c #A4A4A4",
"7.	c #B7B7B7",
"8.	c #BDBDBD",
"9.	c #B5B5B5",
"0.	c #C2C2C2",
"a.	c #C7C7C7",
"b.	c #C5C5C5",
"c.	c #747474",
"d.	c #393939",
"e.	c #1D1D1D",
"f.	c #515151",
"g.	c #6C6C6C",
"h.	c #A3A3A3",
"i.	c #B0B0B0",
"j.	c #CCCCCC",
"k.	c #CECECE",
"l.	c #D1D1D1",
"m.	c #C8C8C8",
"n.	c #B6B6B6",
"o.	c #909090",
"p.	c #656565",
"q.	c #535353",
"r.	c #1C1C1C",
"s.	c #5A5A5A",
"t.	c #9D9D9D",
"u.	c #BFBFBF",
"v.	c #C1C1C1",
"w.	c #D2D2D2",
"x.	c #CBCBCB",
"y.	c #7C7C7C",
"z.	c #252525",
"A.	c #A8A8A8",
"B.	c #101010",
"C.	c #545454",
"D.	c #626262",
"E.	c #D4D4D4",
"F.	c #202020",
"G.	c #787878",
"H.	c #838383",
"I.	c #A1A1A1",
"J.	c #AEAEAE",
"K.	c #D5D5D5",
"L.	c #6D6D6D",
"M.	c #4F4F4F",
"N.	c #3E3E3E",
"O.	c #898989",
"P.	c #BCBCBC",
"Q.	c #7A7A7A",
"R.	c #282828",
"S.	c #D8D8D8",
"T.	c #D9D9D9",
"U.	c #DFDFDF",
"V.	c #E3E3E3",
"W.	c #E5E5E5",
"X.	c #E9E9E9",
"Y.	c #EBEBEB",
"Z.	c #DEDEDE",
"`.	c #DBDBDB",
" +	c #3C3C3C",
".+	c #585858",
"++	c #6B6B6B",
"@+	c #9B9B9B",
"#+	c #666666",
"$+	c #0E0E0E",
"%+	c #8E8E8E",
"&+	c #717171",
"*+	c #757575",
"=+	c #050505",
"-+	c #F6F6F6",
";+	c #7D7D7D",
">+	c #F8F8F8",
",+	c #FFFFFF",
"'+	c #FCFCFC",
")+	c #E6E6E6",
"!+	c #D3D3D3",
"~+	c #676767",
"{+	c #F9F9F9",
"]+	c #ACACAC",
"^+	c #F3F3F3",
"/+	c #888888",
"(+	c #4B4B4B",
"_+	c #777777",
":+	c #020202",
"<+	c #181818",
"[+	c #959595",
"}+	c #0B0B0B",
"                    . + @ # $ % & * = - ; > , ' ) ! ~ { ] ^ / ( { _ ^ : ( < [ ! } ) | 1 2 3 ; 4 = 5 6 $ 7 8                     ",
"                  . + @ # 9 6 0 5 = a b c 2 d e f g { h i j k l j h m m n : o p q r s t u , 3 > v w 5 x y z .                   ",
"        .       . z A # B & 5 C - D E d u ' F ) ~ { G j H I J K m l L J M k M j : ( N O P ' , Q R > - 5 S T 8 .                 ",
". .   8 7     + @ y $ % & U - > 3 E d ' t s V W ( X i k Y Z ` Z I k L J  .I  .j ..+.< _ ~ } @.| , R - * 0 S A 7 8             8 ",
"+ z   A # . 7 y 9 6 & 5 = v #.$.d u %.&.*.+.h i  .L =.-.;.>.,.'.'.).).'.).!.;.~.{.I M j : ].N ^.s | Q b a * /.(.7 .     A     A ",
"A y   y x z (.x 0 & U - v c d @.F _.&.:.{ h H L <.;.!.'.>.[.}.|.,.,.,.[.[.,.>.'.).1.` ~. .j ].2.< } t , R a * % # z   z $   + (.",
"y (.  $ 6 y % & 5 = D 3.$.u t 4.V :.W 5.X H 6.;.7.,.8.9.[.}.0.,.a.0.b.b.b.0.8.,.7.|.).!.` J h ..c.q s ' d.R 4 5 6 $ . # 6   A x ",
"(.9   x e.A (.9 /.* ; $.u @.%.f.~ :.g.G i K -.h.'.'.'.i.!.'.'.>.j.k.l.j.m.a.m.b.}.7.n.>.'.<.o...c.p.q.P @.d.3.4 r.% z # 6   # /.",
"x 6   6 U $ % e.U - R , @.) s.W / X M I =.t.;.'.i.,.8.u.v.v.}.7.m.l.w.w.l.x.x.x.a.}.,.n.i.).-.k y.c.+.~ O F d.3 z.& T x r.. x * ",
"/.& 8 e.- % 5 z.D R d t 4.s.W / : H Y ~.~.A.'.>.,.v.b.a.a.a.m.0.m.w.w.w.l.j.k.x.b.0.[.7.>.;.~.L K h y.p.N P | Q > = B.5 - + 0 z.",
"& U 7 U D & w ; E , d t C.D.g.o i I ~.6.6.6.'.|.8.u.b.k.l.l.k.x.x.l.E.E.l.k.l.k.x.b.8.7.>.).h.L J l ^ +.q 4.u $.D = x U v z * v ",
"F.z.y - c e.- D E d u _.N p G.H.M Y I.).J.'.>.[.0.0.x.k.E.E.K.x.w.l.E.K.l.w.l.l.x.a.v.8.n.|.!.-.L ..L.p.r s _.d.> w % ; Q A C a ",
"U a $ a d.w ; #.E 2 ' t M.D.c.: H I t.6.'.J.|.u.m.x.l.w.w.E.w.b.m.x.x.x.x.m.0.v.v.}.8.|.n.>.-.L J X { [ q.s _., > z.6 D 1 A w > ",
"z.> x #.N.v $.d F F 4.M.*.W p G.O.{.~.6.J.9.7.P.x.x.k.E.l.l.m.b.0.0.0.0.0.}.,.n.8.[.[.0.v.8.|.'.;.h.`  .j Q.g s d R 5 d t S ; 2 ",
"R.R % E %.D , ' ) C.s.D.2.] O.t.7.u.b.x.k.l.S.T.U.V.W.X.X.Y.X.V.U.Z.Z.U.Z.U.U.`.T.E.l.E.K.E.E.k.8.J.).1.I j c.N %.$.w ' _.x R  +",
"; E /.2 M.#.d %.C.D.p c.G l  .c.(.x 0 r.* = - R.> 3 3.E , 2 ) n j r u 1 , , , $.3.b D 4 w * 5 r.h J.'.;.I : { W s  +R.u e 6 3.u ",
"D d e.1 .+$. +t ! W ++] O.{.@+:.* T  +b ! f ~ W ( X K Y I K j u $.y.i h j m m k j : #+{ , u $+b n '.J.).L X / p V N.v u 4.0 , @.",
"R N.U N.[ , N.' q.( h O.=.t.@+O.c.E b o.Y U . A r.  * z 2 u i s P  .D e B./.7 a A z U !.Y , ) m ;.i.J.!.Y : p _ ! | ; u f.0 d.@.",
"$.%.z.F D., 1  +4.< G.O.L I.6.t.K r ) ~ ;./ / P _.^.K H $.#   g.~ 8 7 1 L K : s V j h i.k W q h.J.J.|.'. .: 5.N O u ;  +&.& d.@.",
"c 4.R.N.D.R 3 Q N.&.5.: O.%+ .K :.  (.S L.K.-.u   B.i !.b x 3 G i v 6 2 i.^ &   b *.b.y.; B.6 I <.` ` L h L.^.s F E w F O r., s ",
"1 4.a 4.] u 4.V s.D.p o H.h h  .l | (.d. +I 5 R.c 4. +] n p ) ^ ] g G K H 2 f.t ; T W O u 5 s.J <.Z Z L =.M n { ^.%.3.P q * F } ",
"d M.; 4./ | ! [ W D.&+M H %+@+Y k : ~ - 1 9.i t ; { Y C.5 0 _.Z 9.P x /.} J.] , | ] G ) w L.H h.` ;.<.Z =.k n ] s._.E ) *.* F O ",
"2 M.; %./ 1 %.f.D.< ( O.=.t.o.o.2.* , - G ~.) T 9 r.R.3 b = ; G [.t F.w C B 6 T . Q I H d D ; M ;.;.t.L Y i n { s._.c ) N * F C.",
"1 C.v e /  +N.%.[ ] n l H.n o.: a g.) R + R. +C   A @ b = = F g.*+g.3 /.6 8 8 . (.v & 7 Q ] ; %.X Z L =. .n ] _ r %.c P s.* F &.",
"u C.v %.( | _.) [ p ] h H.l O.++' F.M.:.5 v 6 R.1 t F F g.( ^.*.^.C.o.s.3 ' @.d 4 . x =+d y.M ; ) L L  .M n *+q ! P c ) N * | 4.",
"1 V ; %.++t 4.M.! < p : H.l *+R 5 : G I.p.:.F r / i M Z '.|.,.-+-+v.b.|.Z I O.{ O 4 c d &.^ t d h k H i n ^ p s.O _.R t g /.u ! ",
"1 M.; @.W @.s C.C.V [ g.;+l : *.b t G.` k l 5.i =.;.'.[.w.V.>+,+,+'+)+K.P.'.6.o.2.P ! f ~ ( d f O.<.Z =.M h ( g r e c P ! e.| ) ",
"u ! D %.&+d.u t 4.[ *+k I {.~.O.V $.i ;.{.{.i  .h.J.u.k.V.'+,+-.!+,+>+)+k.,.'.Z O.( *+~++.( h f *+I.L -.I M o p.f.P c e ! r.u %.",
"u ^.> %.Q.u N.s M.++h  .@+I.-.s.#.W *+6.L t. .@+).7.v.!+)+{+'+P X '+-+V.w.v.>.A.{.X G +./ M f.d i t.{.=.H j / ! 4._.c _.C.r.d %.",
"1 ! D %.&+F %.*.V Q.H.M I L I / _.C.%+t.~.~.L 6.]+|.|.[.!+W.^+|.|.>+Z.j.|.'.i.J.I.O.n +.q F ) - N.I o.K i h ^ { ~ P c F f r.d.%.",
"1 M.; t &+N.s < ^.G n /+%+M #+F | V N.L ~.I.t.t.I.).|.;.F t , #.c P (+(+6.>.;.'.t.O.~+&.Q + .   C j K O./ W 5.q ! @.3.' } &  +%.",
"d } R.| L.1 @.! V ~+_+;+H.G r 7   @ $ L.%+k @+` n.u.u.k # 9 # T (.6 x & g 6.6.'.h.i 5.~ _.= z z ; ( n : W s.V ! C.) Q u 4.& d %.",
", (+4 N.5., F } 4.[ g.c.*+_+s $   A R l k k n H A.]+~.f     z z + @     W ;.6.A.~.X C._._.1 B e.d { i o W *.! O ) F b d.%.& d.%.",
"2 P - N.#+E N.%.t s.L.c.;+;+N w C U %.;+o H.h H.~.@+h ' #       :+  . R.=.>.>.6.Z ^ O 1 _.} d.* e / Q.g.^ < g s.(+F c $.&.& , 4.",
"E @.= d ! R 1 d , P < ~+].].q d.x  +g : 5.&+G.G.o.h .+c x       .   e.P Y ).).Z o.p e 1 _.) b ' s.5.{ / G / s.) P ' v c  +<+c N.",
"3 _.F.$..+2 b 3 Q | f.:.[ q [ (+Q c | :.q.#+5.D.] g t > 6 .     + 9 2 ~+Y 6.I.Y K q _.d.t O c b q ~+{ g.: *+g O e  +v Q @.6 c u ",
"E @.C 2 .+1 E a 3 2 @.@.4.(+N f.| R ' q.O N q.f.s.(+d - x +     B.v (+/ K t.Y H l *.%., ' e - d W g p g 2.:.&.P u d R.R | % > d.",
"3 N.C $.C.2 , 2 E | s 4.O O (+f.5 % t *.f.:.~+( 2.1 c = 9 :+    /. +D.G O.K K : *+&.| Q  +_.N._.:.g D.f :.C.P @.' d 4 b u x v 3.",
"#.1 e.E M.$.d  +' @.(+q.q.f.V 1 -  +u (+F 4.t .+f.1 D F.$ + . A ; 4.&+l H Y O.2.< 4.d R , N.z.d D.g g O ! C.) _.N.Q = > d x v 3 ",
"#.d & 3.P 3 $.1 F ' _.e s (+P d.# F.1 e ' 4.t .+4.d #.C x z T & Q N &+H.l k H.p D.e 3.b , ' 3.F M.N s.! &.M.4._. +E = R.$.9 = #.",
"> Q 0 3 @.D 3 3.d ' @.e s O P t 4 $.1 t 1 e u e %., #.U 6 $ <+-  +r ++H.l l ;+~+N F Q c , , > & _.r *.O %.%.t N.2 c = z.3 (.* 4 ",
"a E /.R F > D 3 Q ' @.%.P P %.e 5 C D 1 $.u , |  +3 R.5 x x & R.2 %.&.:.D.p 5.f.%., b D 3 3.* D ! M.V P F F F d c #.U w 3 y e.- ",
"a 3.<+D ' 1 N.' %.%.q.s._ q 5.#+, D , t d. + +P s | Q D R.#.d.t q.< < D.p ] ] 2.r d 3 b E 2 ; N.p D.*.g M.V %.F  +Q C = #.y r.- ",
"a c <+> ' c R 3.2 2 _.P @., P %.a 3 3 @.d.u q.5.( 5.N (+%.(+*.5.;+h : l o.I o.k : [ c v 3 2 R.D s.N V r %.@.d $.R v * C #.T & - ",
"z.3 6 > 1 R D #.#.$.' | | | @. +R 4 3 1 %.~+i i ..G _+].L.2.;+%+h i M M K K K M k /+s.#.b d.z.R %.4.) e F |  +d 3 v & * D z & w ",
"z.#.% a 2 a > v > > ' ' N.E 1 1 3 a c c./+K I [+Y [+Y %+%+K I @+i k %+ .[+K %+k /+l n h p Q C #.| P 4.4.%.|  +$.3 v r.5 ; @ <+C ",
"C ; & - R z.v > v D  +d 1 E 1  +2 C .   . . . .   . :+  + . . + . .   :+. . . . . . . . . z 5 E t F t F F  +2 3.#.R.6 /.- z x r.",
"- R x a , 3.$.2 , Q , t e @._.N. +f ' u D c u 3 2 $.d 1 ; N.u t _.| N.|  +$. +| Q u $. +|  +4.d.c d.d.2  + +2 3 R.- % r.4 + % z.",
"z.b 9 z.Q a #.3 3.3.Q 1 1 d.u t q.D.p.5.L.&+_+/ _+_+Q.G G : : G G Q.;+;+Q.] ;+;+G ;+Q./ ++~+~+~+%.N.d.3.$.Q 3.b - U % /.= :+x F.",
"C a x = 3.4 D #.3 Q Q u ' 1 1 5                                                                 #.(+%.|  +$.c v C 5 x <+= + 9 5 ",
"* R.(.w 3.a 3 Q Q , d  + + +1 z.+ :+z A # # B.B.B.x x % x x x x /.0 /.<+<+<+/./.<+x 9 B.(.(.A # 1 :.*.s | 1 2 #.R.C B.6 F.  B.& ",
"* - (.C 3.- R Q Q E Q d.1 1 u 3 v a b 3.Q Q , d.u u u d., d.d.$.@.P P _._.%.P _.F t u 2 E c #.3.s *.C.4.u , 3.> v = x x *   B.5 ",
"e.= y F.b = v R Q 3.Q , $.,  +1 , d.1 ' @.%.P O f q.f .+q.C.! } < ].].g./ &+].5.D.s.N C.O t P 4.[ N %.N.d Q 3 v v - x 9 5   (.r.",
"& F.A 5 a 5 v > #.R 3 3.Q Q , d. + +u | %.%.P (+N ~ N q 5.D.++_ ++( &+&+_+c.( &+5.< _ :.! 4.s s q.%.d.Q #.v 4 - = F.9 (.&   T <+",
"0 5 =+e.a r.- - R.v v D R b 3 3 , ' t _._.@.P M.~ s.~ < < D.#+q ^ G.( &+].5.+++.D.:.~ ^.M.t _.%.%.u 2 3 v - F.F.* r.# }+&   A 6 ",
"<+& :+& - <+* * C z.4 a > > > D , d t t ' _._.e (+(+f C.~ D.< _ &+{ ~+++#+_ D.[ ~ ^.f s %.u N.N.u , 3 v 4 - C * e.<+}+A 6   @ 9 ",
"<+& z <+U $ % % & * F.C w w = - b R Q , Q 1  +' F t _.e P } } s q.f s M.M.O M.O P e @.F u d.d.$.E c v = F.C e./.9 B.z z 9   @ 9 ",
"& & :+r.C x r.U z.b 3.E 2 , , 2 d N.' ' u ' F _.%.P _.s M.s _.| [ < < #+_ C.M.(+P e %.F 1 d.$.$.Q 3 > v w = 5 /.9 9 + T B   z 6 ",
"x <+. 0 U x 0 * C - v D 3 3.Q Q , d N.1 1 u u u  +' @.e } } &.s q.r r q.} ) P e %.%.@.' 1 $.Q 3.3 v 4 w F.e.<+6 9 # :+z 9   + (.",
"9 %   % e.S 0 r.* = - R.> > b b b 3 2 Q $.2 $.2 d.u  +F s (+(+t @._.e F ' N.u  + +u , , Q 3 b D R.w = C 5 <+x (.}+@   z 9   + (.",
"$ 9   x & $ <+0 r.5 F.= z.- - 4 a > R c R 3 3 3 Q 2 ,  +@._._.d.d 1  +d.Q 3.3.E 3.3 #.3 b v - z.C F.5 e./.9 (.T }+A . z 9   + (.",
"$+$   9 0 (.% % 0 0 0 5 F.C = U C z.4 4 4 v 4 a v b R Q , 2 $.3 Q , E #.b b b b b v > v a - = C 5 e././.<+B.# T T A . + 9   + (.",
"# (.  S <+}+$ S % % % <+0 r.5 & e.5 U C = w = w 4 - 4 v b 3 3 v ; #.v 4 4 4 v v v > a 4 = = F.5 & <+6 x 6 (.T }+A z . + 9   + (.",
"# (.  $ <+# $+(.$ (.B.S x 9 % % <+& e.e.F.C C C C C C w - 4 4 C - 4 C F.F.F.C w z.= = C F.5 r.e.& 6 x x 6 }+A A @ z   + B.  :+(."};
