/* XPM */
static char * porte_xpm[] = {
"64 64 95 2",
"  	c #1E1E1E",
". 	c #1D1D1D",
"+ 	c #1C1C1C",
"@ 	c #1B1B1B",
"# 	c #202020",
"$ 	c #212121",
"% 	c #222222",
"& 	c #242424",
"* 	c #252525",
"= 	c #282828",
"- 	c #2A2A2A",
"; 	c #2D2D2D",
"> 	c #2F2F2F",
", 	c #323232",
"' 	c #313131",
") 	c #333333",
"! 	c #2E2E2E",
"~ 	c #292929",
"{ 	c #121212",
"] 	c #414141",
"^ 	c #4A4A4A",
"/ 	c #353535",
"( 	c #373737",
"_ 	c #393939",
": 	c #383838",
"< 	c #3B3B3B",
"[ 	c #3D3D3D",
"} 	c #3C3C3C",
"| 	c #3A3A3A",
"1 	c #3F3F3F",
"2 	c #404040",
"3 	c #424242",
"4 	c #434343",
"5 	c #444444",
"6 	c #454545",
"7 	c #343434",
"8 	c #262626",
"9 	c #2B2B2B",
"0 	c #2C2C2C",
"a 	c #363636",
"b 	c #505050",
"c 	c #474747",
"d 	c #494949",
"e 	c #484848",
"f 	c #4B4B4B",
"g 	c #4C4C4C",
"h 	c #4D4D4D",
"i 	c #4E4E4E",
"j 	c #303030",
"k 	c #272727",
"l 	c #3E3E3E",
"m 	c #464646",
"n 	c #141414",
"o 	c #515151",
"p 	c #535353",
"q 	c #4F4F4F",
"r 	c #565656",
"s 	c #575757",
"t 	c #595959",
"u 	c #5A5A5A",
"v 	c #5B5B5B",
"w 	c #5C5C5C",
"x 	c #585858",
"y 	c #545454",
"z 	c #525252",
"A 	c #555555",
"B 	c #161616",
"C 	c #181818",
"D 	c #1A1A1A",
"E 	c #191919",
"F 	c #0B0B0B",
"G 	c #080808",
"H 	c #090909",
"I 	c #151515",
"J 	c #0E0E0E",
"K 	c #0A0A0A",
"L 	c #070707",
"M 	c #0F0F0F",
"N 	c #171717",
"O 	c #060606",
"P 	c #0C0C0C",
"Q 	c #131313",
"R 	c #101010",
"S 	c #616161",
"T 	c #111111",
"U 	c #606060",
"V 	c #5D5D5D",
"W 	c #1F1F1F",
"X 	c #5F5F5F",
"Y 	c #5E5E5E",
"Z 	c #232323",
"` 	c #0D0D0D",
" .	c #050505",
"..	c #040404",
"+.	c #030303",
"  . . + @ . #     $ % % & * = - - - - ; > > , , ' ' ) ! ~ $ { ] ^ ) / / / ( _ : < [ } | } : } [ 1 2 2 3 3 4 4 4 5 6 5 6 5 1 < 7 ",
"& $ - . % 8 - 9 0 ! 0 > ' ' ' ' ' ) ) 7 / : : : a a 7 > ; ~ { 1 b 4 [ / | [ 1 3 3 4 4 c c d d e f g h i i i i i h h h ^ ] i e j ",
"k k ! * ~ ! ) a _ < < } } l 1 1 2 _ 2 3 m e e 4 3 ] 1 : j > n 1 o e 4 : 3 6 e g i o p p p q p r s t u v v w w v u x y y 4 p b ) ",
"0 - > = - ~ , ) / a _ : _ | | < l / : < } [ 1 1 1 1 1 < a > n ] z f 6 } ] 3 4 m e f f d g e h z p y p y A A r A p i o q 3 f 5 1 ",
"& . 7 / % B C @ @ D D D E { F G 5 } ; 4 9 % % % # + n H } 7 I ] y i d ] > > > ! 0 = . J e o _ i / ' ' ) , > ' > j ! k n a d : > ",
"- & _ c } ~ ; # 0 0 ! 9 # E K L 3 2 > f 4 / : / ) ! B H 2 _ B ] A o f y f 5 4 3 2 <   M ^ x 1 x o y i 6 y p r 2 e 3 > N 2 w g / ",
", > | g 6 = % + , 8 % + # D O L 3 4 > i i / > ! k D P F l : B ] y o f x A _ < < / k Q R ^ A ] u c / , 2 | } _ ' 5 / * E 4 S r / ",
"/ ' < i i [ _ # ] [ < ' % . F G 3 c ) i A 6 4 ] ( - T P [ ( B 2 y i g u U d z p i ] @ R f v 2 v w r i 6 r w x 7 b g ' $ m V t : ",
"( , < q q 5 } % m 3 3 a * W F G 3 e / i A e e 5 < > n P 1 : I 1 A o h u U g A A p 5   { f v ] v V v z ^ v V v / z q / % 4 w s _ ",
"_ ' } o z 4 1 & c 5 3 _ = # F G 3 c / i A e c 6 } j B P 5 < B ] r o i u S g r s y m W { f v 1 v X v z f v Y v / z z ( Z 6 V t _ ",
"_ > [ o o 4 1 k m 4 3 | = $ P G 3 c / i y e 5 6 l > B P ] < B 3 r o i u S f A s p m   { f t 2 v X v z f v V v ( z p : Z c U u : ",
"a ! } z o ] l * 3 3 3 | ~ Z P G ] e / i p e ] ] | , B P [ a B 3 r b g x U e o y i 3 + Q ^ t 1 u V u q ^ v V v ( z o a % c V v a ",
") ; | g m _ _ ! 3 1 2 < ; ~ I G ] 6 / f i 6 4 5 2 / % M _ a B 3 A i ^ z s f o z i 6 ~ R d r < r v r z i u v t 3 z p [ # 3 u s / ",
"> ~ a | : < < _ | } [ [ l } : ) } 2 / 3 3 5 6 6 5 4 ] _ < 7 B ] y i 3 6 e f h i q i f 3 d z 6 i b A y A A s s r r A z f m o g | ",
"8 Z ' / l 2 3 2 2 3 5 c e e m 4 < e g 6 ^ h i 2 5 f i g | / B ] y e e m o z q 5 y s s A g A s z x v v v v w X V V V Y V 6 [ [ } ",
"~ $ > > / a a / / _ < } < < _ _ : < [ 1 ] 4 5 ] 2 5 5 4 < 7 B 2 y e ] 2 c e e 3 e ^ f ^ ^ e f g i o p p p z z o z z o q c 5 | [ ",
"0 $ a > ~ - 9 9 9 0 0 9 - ~ Z R o 6 9 3 ! j 7 / ) , > . 2 | B 2 A i c < | [ ] 3 3 3 1 - i y a h 3 5 c c e e c e e e e [ : o e ~ ",
": 0 < : k ~ = = k k k * & Z # { m c j 6 > > > j ! 0 ~   3 < B 2 A q c [ / | _ | < | _ ! y w : i 1 l 1 1 l 1 ] 1 ] ] [ : < y b | ",
"> ~ < c [ = k + - 9 9 = + B H O 3 6 ' d 5 9 , ! 0 k B H 3 < B 3 A i d z 3 < } } _ / + M x X : p f 6 [ _ c m m , 4 | ~ T l v 4 0 ",
"_ > [ f 3 % # & > ~ & $ % + H O 2 4 > g e / a ' 9 Z { H 2 / B 3 A i f r 6 : : ( 7 ! D R y p : r g 6 [ 2 4 5 ] / 3 , * Q 5 Y A , ",
": ! } i i } 7 = : ) ) - $   F L [ m , i b 3 : a > Z R K / ' B 3 y i f r v [ 6 6 1 ! n R t X < v v i c 4 o A i 0 g 6 = . 1 A y , ",
"/ ~ | h q 6 [ ~ 2 } l ) * % P L [ m ) h o c 5 2 : 9 Q F / ' B ] y i g x V m q i f < N R w X } v Y x q 4 A w x , q g ! $ < q h j ",
"> k j g q 4 ] k 3 1 2 7 k $ P G 1 4 / h o e 6 4 < ! n F a , I 2 y h g x Y e z b i < D R i x | v V r b m y v u , o ^ > % 9 ] _ ( ",
"% # ( f q 4 2 8 3 2 3 a = $ ` G ] 4 / i o e e 6 [ j B F / , I 2 p i ^ r Y c o b i l + R e r | v w x i m A w u , b e > % > 6 / = ",
"> ! < g b 5 4 & 3 ] 4 ( ~ % ` G ] ] , i o e e 6 ] ) B F / , I 2 p h f A V c y b i 1 @ R e y | v v t q e r v u ) i ^ > % / q i > ",
") , } i o 5 2 k 3 3 3 : ~ $ ` G ] 3 , i o e m 4 2 ) B F , ' I 1 p g ^ r X e z b h 2 D R e A _ t u t o c x w u ) h f ' $ a p p > ",
") j < i b 3 1 k ] 2 3 ( ~ # ` G 2 3 , i z e c 6 1 ) B F ) ' n 1 z f f s V e p z g 2 @ { e y | x u x o e x w u ) f h ' $ : p o ! ",
") > } q h 3 2 k 1 2 } / = # ` G 3 4 ' g p e 6 6 2 / N F , , I [ o f ^ A w e p p i l D T e y < r t r q c A x t , f h > $ : o i 0 ",
"/ ' < i i 3 1 = l l } ) k # ` G 3 4 ' f b c m 4 l ' C F ' > n [ q e e p v e z z i l D R c y < r t r q 6 y t s , ^ g > # : i i ! ",
"a > < i i 3 l & 2 [ [ ) k # P L 2 3 ' f q e 5 3 [ ' N F ! > D l f 1 c p u e b z h [ D R c p : r t A i 5 y u r ' g f ! W a i i ! ",
"/ j < i g ] } % 2 } 1 ) * # P G 1 3 > ^ q c 4 3 } > N F $ 8 Z } } ! ' p t m o o i [ E R e o ( r t x i 4 y u r > ^ ^ ! . ( h g 0 ",
") > _ h h 2 [ Z l } 1 ) * . P L 1 3 > d i e ] ] < ! N K % k & < / ' > p s c z q g } N R e b a r t r i 3 y t A > f f ! + a g g 0 ",
") > : h g 1 } % } } l ' Z   ` L [ 3 j f i e 2 2 _ ; B H Z $ & : / ' ! z A 6 q i e < B M 6 o a A t A g ] z A p ! ^ ^ 9 + / f f 9 ",
"7 > a g h 1 [ $ < < l ' %   ` L < ] ! d g 6 l < a - B H j * 0 7 ! > * c y 4 i f e a B R 5 q / A x y e ] z y z ; ^ e 0 @ , f g - ",
") > / d f 1 < + | < } , %   P L | 2 ; e ^ ] < a ' * R G @ B D , 9 & $ 6 y 1 g f 5 7 B M 5 i : o s z 6 1 q p z ~ e m ~ @ j d ^ ~ ",
"' 0 a e c _ / + ( / a > #   P G a 1 ! 5 5 a ( j * @ P G Z #   7 j ; & e p < 3 ] l , I ` 6 g / i A g 2 | h g g 0 5 [ & N > e e k ",
"! 8 ) } l } } / [ [ [ | ) 9 D O / | 9 l [ } < a ' ~ @ H $ #   7 , > & 4 i m ^ e 6 1 0 M ] m 7 e i q i ^ z y o m h f [ D ! 3 4 8 ",
"- * > > j , ) / a : : ( ( / 7 , , / j / a a ( : _ a / ' k   . ) ' > * < [ 2 3 3 3 3 3 ] 1 l | 4 6 e ^ f h i i i h g e 6 [ } 7 ~ ",
"Z % ~ ! ( _ / : | } [ l [ } | _ 9 / [ / : | : > , < < ' % % + ) > ! & } 1 2 } 7 5 e e e 3 ] m 5 f i i b z p p b o q o g / > = - ",
"$ + = ~ 0 ! ! > > > > ' , ) , ' > 9 , , / / / , / ) a / Z % B 7 ) + % a : | < _ 1 3 3 3 } | l ] 3 4 4 4 5 m 6 5 5 3 3 3 / > k k ",
"$ # > W E @ + + @ +       + B G / > % , + $ % % % % # I Z . M ) 3 ' j = = ~ 9 ~ 9 - * I | 1 k / = 9 > > ! ; ! ! 0 ; 9   9 < ! N ",
"~ Z > ; @ @ + @ . @ + + @ @ B K / / 8 _ # + + + @ @ E { * % R 7 c } < > Z % % & & $ @ B < 3 9 < 8 = = ~ * Z % $ = & $ D > 2 < ~ ",
"% # > < > D I T Z D D B C {  ...7 / & [ ) $ D C B n P  .k % R ' e < < l ( + @ @ D C P H } 2 0 4 a k Z k k = * Z - . { F 9 < 0 + ",
"0 * j 3 l j - N ! = = # E { L  ., / k ] 2 j 9 ~ 8   F L & % R > e } < 5 f / _ / j Z ` H < 5 ; c 6 1 ' / } [ |   / ' D R ~ 2 l $ ",
"! = > 3 3 / j + ' > j = + I G  ., 7 & ] 3 / ) ' 9 Z M L Z Z R > m | < 6 i | 2 < : = J H | 3 9 c d 6 a : m e 5 % _ _   { k 2 } $ ",
"; = > 4 2 ( ' . ' > ' - + B L  .' / & 1 4 a 7 ) 0 & R O Z % M , 6 _ | c i | 3 2 | ~ M H | ] 9 c ^ 3 _ _ m e 5 $ | <   Q = } < W ",
"0 k > 1 [ / ' + ) ' j = D B O  ., / & l 4 ( ) ' > * R L Z % J j 4 : | 5 i _ ] < _ = M H < ] - 6 d 3 : ( 6 e 6 $ a : . R k | _   ",
"~ * 0 [ [ ) ' @ , ' > ~ D n O  ., / & l 4 a 7 ' ! & R L % # ` j ] : | 4 h / 2 < ( ~ R H | 1 ~ 4 e 4 ( / 5 c 3 % / a + R & _ _ W ",
"* % 0 | } j ' E > > ! = B B O  .j ) Z } ] / j j 0 # ` L # # ` > l / : 3 ^ ' < < : k M H a [ * ] c 1 / , 2 4 } % ) , @ R % ( , . ",
"~ % - a ( > j B ; ' ! = B B  . .> , % : l j , > 9 . P O $ . ` ! } / / } 5 , _ ( 7 = J H 7 _ % } 4 2 : > ] ] l $ ' > @ M $ a ' @ ",
"% # k ' > ) 7 j ) ) / / ! * B  .9 0 $ / a : / , , 0 . H # D P 9 | > , ) | l 2 1 < / % H ' 7 % a 1 5 5 4 c e 6 1 ] } > B % > - E ",
"& @ # - > ) ) / / / / / , > ! 9 k k & ' / a / / 7 , > ~ W @ P 9 _ - > a 1 3 3 3 2 2 1 / ! > ! _ 2 4 4 4 c m 5 5 4 4 ] [ 9 ~ & % ",
"Q B # & - ! > > j ' j > , / j - & k ~ ' > > > & ~ j > ~ N B K 9 : ~ ~ > ( _ , k ) a ( j ! > ' : [ ] 3 ] 4 4 3 2 1 1 [ _ Z   N $ ",
"N R W $ % & * * & * k k 8 8 = k 0 $ . ) > ' , > ' j > > Z N H 9 / 9 = ; ' , > > j , ) , j ~ % / ) ) ) 7 7 ) , ' , , , , ~ % B B ",
"% + % & N F F F F F F P H G ..+.- - + j @ ` F F K H ....+ B H 0 / 0 0 * D ` M ` ` F  .O ' _ W ! D Q { { { T { R R ` G G . - = B ",
"  D $ ' 0 #     # #   # + B O ..- 9 @ / > $ $ # . C H  .@ n H - , 0 0 ' 7 Z k 8 % @ H L ) :   / , ! ; > ! 9 ! 0 = $ R F + = & B ",
"% E $ > > = * = k = 8 8   E G ..~ = @ / 7 ~ ~ * Z   J  .D I H ~ ' ~ - ) _ ~ , j - # K G j ,   / | / / ( a / / , > = Q P D ~ * W ",
"T ` N - > ~ 8 ~ - ~ ~ k Z + L +.8 * D 7 j ~ - - & W J  .B E F ~ > Z ~ > ) 0 ) , 9 % F L > > + , a a / ( a : : / j ~ Q F P I R B ",
"I D . ~ ; j ) 7 ) ) ) ) ' 9 + ` & Z . > ) : a : / ' k { n E P = > ~ ~ ~ ( [ 1 } < a = M 0 ' k ! l 3 5 6 5 6 6 4 ] } ' B T $ + R ",
"Z $ k ~ ! > j ' , ) , ) , ' > 9 ~ 9 ! j / / a / / / ' 0 . $ R 8 ! - 9 , : < 1 [ < < < ( / | : } 2 3 ] ] 4 3 3 1 1 } : ' Z % $   ",
"B C N + % % k 8 k ~ - 9 9 - 9 = k = 0 ! > > ' > ; 0 = # Q N K k 0 # W % ! , ) / / / / / 7 , , 7 / a a : _ : a / / ' ! = @ # + B ",
"B B D + % $ ~ ~ ~ k - 9 0 ~ k - - & - 9 = 9 ! ; 0 k Z   { B H & ~ .   % ; - j j , ' 0 ' ' > ' ' , ! / 7 / a / / ) ! ! = @ Z + I ",
"n B I B . @ # Z #   # % & 8 * * * $ k * k = = = k 8 Z + { N G Z = W   # ~ k ~ ~ ~ ~ ~ - ! 9 0 9 0 ; 9 9 ~ ~ - 0 ; - 9 & B D B Q ",
"M J R R Q Q n B B N N C C N E E N D N N E D @ @ D E E n R B L W Z E B B +       + . .   . + +   % % Z % # # $ #   + @ E n B n R "};
